<?xml version="1.0" standalone="no"?>
<!DOCTYPE svg PUBLIC "-//W3C//DTD SVG 20010904//EN"
 "http://www.w3.org/TR/2001/REC-SVG-20010904/DTD/svg10.dtd">
<svg version="1.0" xmlns="http://www.w3.org/2000/svg"
 width="1000.000000pt" height="1000.000000pt" viewBox="0 0 1000.000000 1000.000000"
 preserveAspectRatio="xMidYMid meet">
<metadata>
Created by potrace 1.14, written by Peter Selinger 2001-2017
</metadata>
<g transform="translate(0.000000,1000.000000) scale(0.100000,-0.100000)"
fill="#000000" stroke="none">
<path d="M4815 8790 c-787 -52 -1464 -269 -2001 -642 l-71 -50 -104 26 c-150
37 -282 56 -450 64 -439 22 -916 -54 -991 -158 -46 -64 -64 -436 -33 -690 41
-336 162 -805 269 -1044 25 -57 26 -60 11 -115 -26 -102 -64 -325 -86 -512
-20 -160 -23 -234 -23 -569 -1 -246 3 -419 11 -480 8 -63 9 -108 3 -135 -40
-173 -54 -591 -25 -790 40 -282 117 -497 253 -705 73 -110 249 -286 370 -368
103 -70 275 -156 397 -198 44 -15 81 -28 81 -28 1 -1 14 -66 28 -146 41 -224
102 -450 155 -572 18 -43 19 -50 5 -100 -80 -299 -194 -1181 -194 -1499 l0
-79 79 0 79 0 6 88 c39 568 99 1032 178 1387 24 109 28 145 20 165 -6 14 -24
58 -41 99 -41 97 -106 333 -136 496 -57 309 -92 687 -79 851 7 90 12 79 -69
146 -82 67 -117 173 -98 291 21 129 84 216 197 274 92 47 102 67 79 148 -21
72 -16 155 11 192 52 69 118 89 174 51 41 -28 65 -82 81 -186 13 -89 39 -126
88 -124 43 1 57 14 77 75 55 170 157 266 240 228 54 -24 65 -103 38 -256 -16
-87 -16 -96 5 -245 73 -518 138 -883 180 -1015 74 -227 153 -397 266 -570 393
-600 1125 -1297 1730 -1648 102 -59 294 -149 365 -172 30 -10 56 -19 58 -20 1
-1 7 -51 12 -111 15 -155 7 -144 105 -144 l85 0 -5 28 c-13 69 -23 147 -20
151 2 1 19 -9 37 -23 48 -36 138 -74 237 -99 75 -19 113 -21 296 -21 457 0
910 114 1178 296 79 53 192 162 233 222 22 33 35 45 38 35 21 -60 98 -430 111
-536 l7 -53 85 0 84 0 -6 58 c-14 118 -98 511 -165 777 -25 96 -115 284 -163
340 -19 22 -55 82 -81 133 -91 181 -192 316 -304 405 l-60 49 14 46 c37 116
79 289 103 422 l26 145 105 36 c335 114 539 233 759 443 81 78 200 232 264
340 271 464 390 1193 312 1906 -44 400 -148 827 -286 1173 -25 62 -39 111 -36
127 3 14 21 70 41 125 94 263 146 650 146 1086 0 403 -47 661 -127 702 -15 8
-71 24 -124 36 -430 93 -1093 50 -1455 -95 l-61 -25 -54 31 c-80 48 -279 146
-393 195 -409 174 -867 285 -1341 325 -184 15 -565 20 -730 10z m790 -205
c682 -72 1276 -279 1786 -621 379 -255 741 -621 991 -1004 192 -292 342 -599
453 -920 224 -655 290 -1334 189 -1960 -113 -702 -406 -1142 -924 -1389 -124
-59 -268 -113 -273 -103 -2 4 0 39 4 77 5 39 11 158 15 265 7 193 7 195 34
226 99 114 128 335 66 499 -33 87 -80 152 -148 206 l-53 42 0 116 c0 104 -3
121 -25 164 -96 190 -366 212 -476 39 l-27 -43 -51 50 c-67 66 -123 91 -206
91 -188 0 -267 -137 -226 -391 l17 -104 -36 -250 c-73 -508 -126 -792 -170
-914 -31 -84 -31 -86 0 -116 31 -32 70 -32 99 0 58 62 118 345 211 980 45 307
45 310 30 388 -19 100 -19 188 -1 232 11 27 22 35 49 40 47 9 71 0 119 -43 40
-36 85 -114 108 -187 18 -58 37 -75 81 -75 51 0 68 27 86 133 20 114 42 159
88 181 49 23 95 14 139 -27 53 -51 63 -102 39 -210 -24 -108 -20 -119 67 -164
76 -39 133 -97 169 -173 23 -48 26 -68 26 -160 0 -98 -2 -109 -30 -159 -16
-29 -46 -68 -67 -85 -20 -18 -42 -44 -47 -60 -6 -15 -11 -91 -11 -169 0 -419
-97 -965 -227 -1281 -34 -81 -36 -91 -24 -120 18 -42 60 -233 61 -273 0 -31
-2 -32 -142 -91 -322 -136 -769 -263 -1044 -296 -121 -14 -183 -38 -231 -88
-15 -15 -36 -28 -46 -28 -32 0 -243 87 -357 147 -479 253 -1076 717 -1605
1248 -272 273 -401 437 -431 550 -33 123 -95 484 -152 885 -25 174 -27 201
-15 255 15 76 17 226 2 276 -52 173 -289 203 -433 54 l-44 -45 -22 34 c-54 89
-141 131 -249 124 -176 -13 -295 -175 -261 -354 11 -58 10 -59 -17 -79 -15
-11 -56 -47 -90 -81 -99 -99 -143 -207 -143 -353 0 -47 5 -104 11 -126 16 -58
65 -153 103 -200 l33 -40 6 -205 c4 -113 10 -227 13 -253 l7 -48 -54 21 c-174
66 -349 179 -474 305 -222 222 -344 514 -376 900 -16 188 3 504 37 624 13 45
14 68 5 130 -6 42 -16 171 -21 286 -26 521 40 1096 172 1504 271 837 934 1563
1752 1916 399 173 829 274 1336 314 163 13 647 5 825 -14z m2861 -375 c164
-10 379 -41 395 -57 17 -17 39 -179 49 -365 20 -360 -27 -863 -103 -1118 l-13
-45 -28 55 c-271 532 -662 994 -1145 1355 l-93 70 43 13 c141 41 421 84 619
95 30 2 69 4 85 5 17 1 102 -3 191 -8z m-6226 -210 c117 -10 301 -38 310 -47
3 -2 -3 -11 -13 -18 -10 -7 -79 -71 -154 -141 -331 -313 -630 -752 -793 -1164
-19 -47 -37 -89 -40 -93 -14 -17 -117 346 -159 559 -38 192 -54 345 -55 529
-1 99 3 205 7 236 l8 56 57 17 c213 62 560 90 832 66z m1869 -6028 c658 -624
1334 -1103 1786 -1268 71 -26 90 -36 88 -51 -1 -10 -7 -51 -13 -91 -5 -40 -10
-92 -10 -114 0 -39 -1 -40 -27 -33 -51 12 -306 141 -418 210 -456 282 -979
755 -1369 1239 -70 87 -198 259 -181 244 4 -4 69 -65 144 -136z m3652 -526
c33 -44 58 -80 57 -81 -2 -1 -35 0 -75 3 l-71 4 -16 87 c-9 47 -19 97 -23 111
-5 24 -4 23 32 -10 20 -19 63 -71 96 -114z m81 -278 c157 -72 230 -230 184
-394 -91 -317 -613 -551 -1276 -571 -150 -4 -202 -2 -275 12 -177 33 -293 112
-330 226 -34 101 19 261 99 298 23 10 77 22 121 26 290 24 933 223 1255 390
99 51 134 53 222 13z"/>
<path d="M6343 5340 c-112 -23 -196 -88 -245 -188 -30 -60 -33 -75 -33 -157 0
-109 26 -174 98 -246 67 -67 124 -91 227 -97 109 -5 177 18 253 88 77 70 111
149 112 255 0 70 -4 88 -31 145 -18 36 -49 83 -70 104 -75 75 -210 117 -311
96z"/>
<path d="M3522 5299 c-105 -20 -214 -114 -252 -216 -70 -187 26 -393 213 -457
59 -20 171 -21 226 -1 97 34 184 122 216 217 9 26 16 78 16 116 0 165 -108
300 -270 338 -62 15 -86 16 -149 3z"/>
<path d="M4543 4807 c-53 -24 -48 -145 8 -204 45 -47 85 -63 157 -63 45 0 73
7 119 30 33 17 68 39 78 50 17 19 18 19 62 -20 69 -60 140 -83 236 -76 129 9
202 60 228 157 15 54 4 95 -32 121 -22 16 -29 17 -52 7 -27 -12 -31 -21 -27
-71 4 -70 -38 -101 -135 -102 -76 0 -135 30 -183 94 -19 25 -42 49 -52 54 -32
15 -69 -2 -94 -43 -49 -77 -155 -114 -208 -71 -24 18 -28 29 -28 70 0 61 -31
88 -77 67z"/>
<path d="M7079 3795 c-53 -29 -45 -95 15 -120 52 -22 96 -79 96 -124 0 -50
-22 -69 -100 -83 -97 -17 -127 -62 -74 -115 24 -24 30 -25 86 -19 67 7 140 35
177 69 31 28 60 93 61 133 0 96 -68 201 -162 248 -60 30 -64 30 -99 11z"/>
<path d="M3040 3782 c-114 -56 -181 -209 -136 -315 49 -119 291 -184 327 -88
14 36 -16 73 -67 84 -91 19 -111 27 -122 52 -24 51 7 112 77 152 54 32 61 40
61 74 0 55 -69 76 -140 41z"/>
</g>
</svg>
